<?xml version="1.0" encoding="UTF-8" standalone="no"?>
<!-- Created with Inkscape (http://www.inkscape.org/) -->

<svg
   xmlns:dc="http://purl.org/dc/elements/1.1/"
   xmlns:cc="http://creativecommons.org/ns#"
   xmlns:rdf="http://www.w3.org/1999/02/22-rdf-syntax-ns#"
   xmlns:svg="http://www.w3.org/2000/svg"
   xmlns="http://www.w3.org/2000/svg"
   xmlns:sodipodi="http://sodipodi.sourceforge.net/DTD/sodipodi-0.dtd"
   xmlns:inkscape="http://www.inkscape.org/namespaces/inkscape"
   id="svg2"
   version="1.1"
   inkscape:version="0.48.4 r9939"
   width="2104.7244"
   height="2979.9213"
   xml:space="preserve"
   sodipodi:docname="udoo_003_A1.svg"><metadata
     id="metadata8"><rdf:RDF><cc:Work
         rdf:about=""><dc:format>image/svg+xml</dc:format><dc:type
           rdf:resource="http://purl.org/dc/dcmitype/StillImage" /><dc:title></dc:title></cc:Work></rdf:RDF></metadata><defs
     id="defs6" /><sodipodi:namedview
     pagecolor="#ffffff"
     bordercolor="#666666"
     borderopacity="1"
     objecttolerance="10"
     gridtolerance="10"
     guidetolerance="10"
     inkscape:pageopacity="0"
     inkscape:pageshadow="2"
     inkscape:window-width="1280"
     inkscape:window-height="751"
     id="namedview4"
     showgrid="false"
     inkscape:document-units="mm"
     inkscape:zoom="0.18054168"
     inkscape:cx="1052.3622"
     inkscape:cy="1489.9607"
     inkscape:window-x="0"
     inkscape:window-y="25"
     inkscape:window-maximized="1"
     inkscape:current-layer="g10" /><g
     id="g10"
     inkscape:groupmode="layer"
     inkscape:label="udoo_003_A1"
     transform="matrix(1.25,0,0,-1.25,0,2979.9213)"><path
       d="m 1332.2795,537.1495 c 0,-3.1201 -2.5503,-5.6702 -5.6704,-5.6702 l -969.444,0 c -3.1179,0 -5.6699,2.5501 -5.6699,5.6702 l 0,544.25 c 0,3.1175 2.5518,5.6678 5.6699,5.6678 l 969.444,6e-4 c 3.1201,0 5.6701,-2.5515 5.6701,-5.6684 l 3e-4,-544.25 z"
       style="fill:none;stroke:#f47216;stroke-opacity:1;stroke-width:0.9998;stroke-linecap:butt;stroke-linejoin:miter;stroke-miterlimit:22.92558563;stroke-dasharray:none"
       id="path12" /><path
       d="m 1445.6701,367.0696 c 0,-3.1204 -2.5509,-5.6701 -5.671,-5.6701 l -1196.221,0 c -3.1167,0 -5.669,2.5497 -5.669,5.6701 l 0,827.7143 c 0,3.1178 2.5523,5.6707 5.669,5.6707 l 1196.2219,3e-4 c 3.1198,0 5.6693,-2.5535 5.6693,-5.6716 l 8e-4,-827.7137 z"
       style="fill:none;stroke:#00adef;stroke-opacity:1;stroke-width:0.9998;stroke-linecap:butt;stroke-linejoin:miter;stroke-miterlimit:22.92558563;stroke-dasharray:none"
       id="path14" /><path
       d="m 1371.9691,1072.8955 -14.1795,0 0,85.0394 14.1795,0 0,-85.0394 z"
       style="fill:none;stroke:#231f20;stroke-opacity:1;stroke-width:0.9998;stroke-linecap:butt;stroke-linejoin:miter;stroke-miterlimit:22.92558563;stroke-dasharray:none"
       id="path16" /><path
       d="m 325.9837,1072.8955 -14.1738,0 0,85.0394 14.1738,0 0,-85.0394 z"
       style="fill:none;stroke:#231f20;stroke-opacity:1;stroke-width:0.9998;stroke-linecap:butt;stroke-linejoin:miter;stroke-miterlimit:22.92558563;stroke-dasharray:none"
       id="path18" /><path
       d="m 1371.9691,460.6095 -14.1795,0 0,85.0399 14.1795,0 0,-85.0399 z"
       style="fill:none;stroke:#231f20;stroke-opacity:1;stroke-width:0.9998;stroke-linecap:butt;stroke-linejoin:miter;stroke-miterlimit:22.92558563;stroke-dasharray:none"
       id="path20" /><path
       d="m 325.9837,460.6095 -14.1738,0 0,85.0399 14.1738,0 0,-85.0399 z"
       style="fill:none;stroke:#231f20;stroke-opacity:1;stroke-width:0.9998;stroke-linecap:butt;stroke-linejoin:miter;stroke-miterlimit:22.92558563;stroke-dasharray:none"
       id="path22" /><g
       id="g24"
       transform="scale(-1,-1)"><path
         d="m -238.1088,-2056.5147 c 0,-3.117 -2.5509,-5.6693 -5.671,-5.6693 l -1196.2211,3e-4 c -3.1166,0 -5.669,2.5514 -5.669,5.6687 l 0,827.7159 c 0,3.1176 2.5524,5.6699 5.669,5.6699 l 1196.2219,3e-4 c 3.1199,0 5.6693,-2.5529 5.6693,-5.6702 l 9e-4,-827.7156 z"
         style="fill:none;stroke:#00adef;stroke-opacity:1;stroke-width:0.9998;stroke-linecap:butt;stroke-linejoin:miter;stroke-miterlimit:22.92558563;stroke-dasharray:none"
         id="path26" /></g><g
       id="g28"
       transform="scale(-1,-1)"><path
         d="m -311.8099,-1350.6883 -14.1795,0 0,85.04 14.1795,0 0,-85.04 z"
         style="fill:none;stroke:#231f20;stroke-opacity:1;stroke-width:0.9998;stroke-linecap:butt;stroke-linejoin:miter;stroke-miterlimit:22.92558563;stroke-dasharray:none"
         id="path30" /></g><g
       id="g32"
       transform="scale(-1,-1)"><path
         d="m -1357.7953,-1350.6883 -14.1738,0 0,85.04 14.1738,0 0,-85.04 z"
         style="fill:none;stroke:#231f20;stroke-opacity:1;stroke-width:0.9998;stroke-linecap:butt;stroke-linejoin:miter;stroke-miterlimit:22.92558563;stroke-dasharray:none"
         id="path34" /></g><g
       id="g36"
       transform="scale(-1,-1)"><path
         d="m -311.8099,-1962.9711 -14.1795,0 0,85.0393 14.1795,0 0,-85.0393 z"
         style="fill:none;stroke:#231f20;stroke-opacity:1;stroke-width:0.9998;stroke-linecap:butt;stroke-linejoin:miter;stroke-miterlimit:22.92558563;stroke-dasharray:none"
         id="path38" /></g><g
       id="g40"
       transform="scale(-1,-1)"><path
         d="m -1357.7953,-1962.9711 -14.1738,0 0,85.0393 14.1738,0 0,-85.0393 z"
         style="fill:none;stroke:#231f20;stroke-opacity:1;stroke-width:0.9998;stroke-linecap:butt;stroke-linejoin:miter;stroke-miterlimit:22.92558563;stroke-dasharray:none"
         id="path42" /></g><g
       id="g44"
       transform="matrix(-0.03837,0.99926,-0.99926,-0.03837,0,0)"><path
         d="m 1028.2742,-672.0151 10.641,-2.3139 1.9383,-47.8123 1.486,-32.8246 -16.8993,-2.0795 2.834,85.0303 z"
         style="fill:none;stroke:#2e3192;stroke-opacity:1;stroke-width:0.9998;stroke-linecap:butt;stroke-linejoin:miter;stroke-miterlimit:22.92558563;stroke-dasharray:none"
         id="path46" /></g><g
       id="g48"
       transform="matrix(-0.03837,0.99926,-0.99926,-0.03837,0,0)"><path
         d="m 521.5527,-637.3919 10.641,-2.3139 1.9383,-47.8123 1.4859,-32.8246 -16.899,-2.0795 2.8338,85.0303 z"
         style="fill:none;stroke:#2e3192;stroke-opacity:1;stroke-width:0.9998;stroke-linecap:butt;stroke-linejoin:miter;stroke-miterlimit:22.92558563;stroke-dasharray:none"
         id="path50" /></g><g
       id="g52"
       transform="matrix(0.99926,0.03837,-0.03837,0.99926,0,0)"><path
         d="m 396.9428,811.4927 10.6407,-2.3136 1.9383,-47.8123 1.4859,-32.8246 -16.899,-2.0795 2.8341,85.03 z"
         style="fill:none;stroke:#2e3192;stroke-opacity:1;stroke-width:0.9998;stroke-linecap:butt;stroke-linejoin:miter;stroke-miterlimit:22.92558563;stroke-dasharray:none"
         id="path54" /></g><g
       id="g56"
       transform="matrix(0.99926,0.03837,-0.03837,0.99926,0,0)"><path
         d="m 1333.6917,922.4864 10.6407,-2.3136 1.9386,-47.8126 1.4857,-32.8243 -16.8991,-2.0795 2.8341,85.03 z"
         style="fill:none;stroke:#2e3192;stroke-opacity:1;stroke-width:0.9998;stroke-linecap:butt;stroke-linejoin:miter;stroke-miterlimit:22.92558563;stroke-dasharray:none"
         id="path58" /></g><g
       id="g60"
       transform="matrix(-0.99926,-0.03837,0.03837,-0.99926,0,0)"><path
         d="m -408.3494,-628.1535 10.641,-2.3139 1.9383,-47.8123 1.4859,-32.8246 -16.8993,-2.0795 2.8341,85.0303 z"
         style="fill:none;stroke:#2e3192;stroke-opacity:1;stroke-width:0.9998;stroke-linecap:butt;stroke-linejoin:miter;stroke-miterlimit:22.92558563;stroke-dasharray:none"
         id="path62" /></g><g
       id="g64"
       transform="matrix(-0.99926,-0.03837,0.03837,-0.99926,0,0)"><path
         d="m -1345.0983,-739.1472 10.6407,-2.3136 1.9386,-47.8126 1.4856,-32.8243 -16.899,-2.0795 2.8341,85.03 z"
         style="fill:none;stroke:#2e3192;stroke-opacity:1;stroke-width:0.9998;stroke-linecap:butt;stroke-linejoin:miter;stroke-miterlimit:22.92558563;stroke-dasharray:none"
         id="path66" /></g><g
       id="g68"
       transform="matrix(-0.03837,0.99926,-0.99926,-0.03837,0,0)"><path
         d="m 1023.9225,-785.3545 10.6407,-2.3136 1.9383,-47.8125 1.4859,-32.8244 -16.899,-2.0795 2.8341,85.03 z"
         style="fill:none;stroke:#2e3192;stroke-opacity:1;stroke-width:0.9998;stroke-linecap:butt;stroke-linejoin:miter;stroke-miterlimit:22.92558563;stroke-dasharray:none"
         id="path70" /></g><g
       id="g72"
       transform="matrix(-0.03837,0.99926,-0.99926,-0.03837,0,0)"><path
         d="m 517.2009,-750.7312 10.6407,-2.3137 1.9384,-47.8125 1.4859,-32.8244 -16.899,-2.0795 2.834,85.0301 z"
         style="fill:none;stroke:#2e3192;stroke-opacity:1;stroke-width:0.9998;stroke-linecap:butt;stroke-linejoin:miter;stroke-miterlimit:22.92558563;stroke-dasharray:none"
         id="path74" /></g><g
       id="g76"
       transform="matrix(-0.03837,0.99926,-0.99926,-0.03837,0,0)"><path
         d="m 1019.4072,-902.9424 10.641,-2.3136 1.9383,-47.8125 1.4859,-32.8244 -16.8993,-2.0795 2.8341,85.03 z"
         style="fill:none;stroke:#2e3192;stroke-opacity:1;stroke-width:0.9998;stroke-linecap:butt;stroke-linejoin:miter;stroke-miterlimit:22.92558563;stroke-dasharray:none"
         id="path78" /></g><g
       id="g80"
       transform="matrix(-0.03837,0.99926,-0.99926,-0.03837,0,0)"><path
         d="m 512.6856,-868.3191 10.641,-2.3137 1.9383,-47.8125 1.486,-32.8244 -16.8991,-2.0795 2.8338,85.0301 z"
         style="fill:none;stroke:#2e3192;stroke-opacity:1;stroke-width:0.9998;stroke-linecap:butt;stroke-linejoin:miter;stroke-miterlimit:22.92558563;stroke-dasharray:none"
         id="path82" /></g><g
       id="g84"
       transform="matrix(-0.03837,0.99926,-0.99926,-0.03837,0,0)"><path
         d="m 1015.164,-1013.449 10.641,-2.3137 1.9383,-47.8125 1.4859,-32.8244 -16.8993,-2.0795 2.8341,85.0301 z"
         style="fill:none;stroke:#2e3192;stroke-opacity:1;stroke-width:0.9998;stroke-linecap:butt;stroke-linejoin:miter;stroke-miterlimit:22.92558563;stroke-dasharray:none"
         id="path86" /></g><g
       id="g88"
       transform="matrix(-0.03837,0.99926,-0.99926,-0.03837,0,0)"><path
         d="m 508.4425,-978.8258 10.6409,-2.3137 1.9384,-47.8125 1.4859,-32.8243 -16.899,-2.0795 2.8338,85.03 z"
         style="fill:none;stroke:#2e3192;stroke-opacity:1;stroke-width:0.9998;stroke-linecap:butt;stroke-linejoin:miter;stroke-miterlimit:22.92558563;stroke-dasharray:none"
         id="path90" /></g><path
       d="m 1136.8412,1937.6082 -589.9034,0 c -31.0989,0 -56.5435,-26.2656 -56.5435,-58.3677 l 0,-473.1681 c 0,-32.1021 25.4446,-58.3676 56.5435,-58.3676 l 589.9034,0 c 31.0989,0 56.5435,26.2655 56.5435,58.3676 l 0,473.1681 c 0,32.1021 -25.4446,58.3677 -56.5435,58.3677 z"
       style="fill:none;stroke:#ed1c24;stroke-opacity:1;stroke-width:0.216;stroke-linecap:butt;stroke-linejoin:miter;stroke-miterlimit:22.92558563;stroke-dasharray:none"
       id="path92" /><path
       d="m 518.665,1879.2405 c 0,-2.4261 1.9676,-4.3937 4.3937,-4.3937 2.4262,0 4.3937,1.9676 4.3937,4.3937 0,2.4262 -1.9675,4.3937 -4.3937,4.3937 -2.4261,0 -4.3937,-1.9675 -4.3937,-4.3937 z"
       style="fill:none;stroke:#231f20;stroke-opacity:1;stroke-width:0.216;stroke-linecap:butt;stroke-linejoin:miter;stroke-miterlimit:22.92558563;stroke-dasharray:none"
       id="path94" /><path
       d="m 605.3054,1319.4309 c 2.4262,0 4.3937,1.9675 4.3937,4.3937 0,2.4262 -1.9675,4.3937 -4.3937,4.3937 -2.4262,0 -4.3937,-1.9675 -4.3937,-4.3937 0,-2.4262 1.9675,-4.3937 4.3937,-4.3937 z"
       style="fill:none;stroke:#231f20;stroke-opacity:1;stroke-width:0.216;stroke-linecap:butt;stroke-linejoin:miter;stroke-miterlimit:22.92558563;stroke-dasharray:none"
       id="path96" /><path
       d="m 518.665,1406.0721 c 0,2.4262 1.9676,4.3937 4.3937,4.3937 2.4262,0 4.3937,-1.9675 4.3937,-4.3937 0,-2.4261 -1.9675,-4.3937 -4.3937,-4.3937 -2.4261,0 -4.3937,1.9676 -4.3937,4.3937 z"
       style="fill:none;stroke:#231f20;stroke-opacity:1;stroke-width:0.216;stroke-linecap:butt;stroke-linejoin:miter;stroke-miterlimit:22.92558563;stroke-dasharray:none"
       id="path98" /><path
       d="m 1078.4738,1319.4309 c -2.4261,0 -4.3937,1.9675 -4.3937,4.3937 0,2.4262 1.9676,4.3937 4.3937,4.3937 2.4262,0 4.3937,-1.9675 4.3937,-4.3937 0,-2.4262 -1.9675,-4.3937 -4.3937,-4.3937 z"
       style="fill:none;stroke:#231f20;stroke-opacity:1;stroke-width:0.216;stroke-linecap:butt;stroke-linejoin:miter;stroke-miterlimit:22.92558563;stroke-dasharray:none"
       id="path100" /><path
       d="m 1165.1117,1879.2405 c 0,-2.4261 -1.9676,-4.3937 -4.3937,-4.3937 -2.4262,0 -4.3937,1.9676 -4.3937,4.3937 0,2.4262 1.9675,4.3937 4.3937,4.3937 2.4261,0 4.3937,-1.9675 4.3937,-4.3937 z"
       style="fill:none;stroke:#231f20;stroke-opacity:1;stroke-width:0.216;stroke-linecap:butt;stroke-linejoin:miter;stroke-miterlimit:22.92558563;stroke-dasharray:none"
       id="path102" /><path
       d="m 605.3054,1965.8775 c 2.4262,0 4.3937,-1.9675 4.3937,-4.3937 0,-2.4262 -1.9675,-4.3937 -4.3937,-4.3937 -2.4262,0 -4.3937,1.9675 -4.3937,4.3937 0,2.4262 1.9675,4.3937 4.3937,4.3937 z"
       style="fill:none;stroke:#231f20;stroke-opacity:1;stroke-width:0.216;stroke-linecap:butt;stroke-linejoin:miter;stroke-miterlimit:22.92558563;stroke-dasharray:none"
       id="path104" /><path
       d="m 1165.1117,1406.0721 c 0,2.4262 -1.9676,4.3937 -4.3937,4.3937 -2.4262,0 -4.3937,-1.9675 -4.3937,-4.3937 0,-2.4261 1.9675,-4.3937 4.3937,-4.3937 2.4261,0 4.3937,1.9676 4.3937,4.3937 z"
       style="fill:none;stroke:#231f20;stroke-opacity:1;stroke-width:0.216;stroke-linecap:butt;stroke-linejoin:miter;stroke-miterlimit:22.92558563;stroke-dasharray:none"
       id="path106" /><path
       d="m 1078.4738,1965.8775 c -2.4261,0 -4.3937,-1.9675 -4.3937,-4.3937 0,-2.4262 1.9676,-4.3937 4.3937,-4.3937 2.4262,0 4.3937,1.9675 4.3937,4.3937 0,2.4262 -1.9675,4.3937 -4.3937,4.3937 z"
       style="fill:none;stroke:#231f20;stroke-opacity:1;stroke-width:0.216;stroke-linecap:butt;stroke-linejoin:miter;stroke-miterlimit:22.92558563;stroke-dasharray:none"
       id="path108" /><g
       id="g110"
       transform="matrix(-1,4.7e-4,-4.7e-4,-1,0,0)"><path
         d="m -1109.3536,-917.9331 69.891,23.3201 c 2.9631,1.1398 4.5936,4.3599 3.625,7.3199 0,0 -11.6995,34.933 -11.6995,34.933 0,0 500.0471,167.061 500.0471,167.061 l 11.6093,-34.7494 c 1.2033,-2.9599 4.3617,-4.8722 7.3244,-3.9019 l 69.8134,23.3501 c 2.9631,0.9701 4.4518,4.3943 3.4809,7.3645 l -11.6461,34.8584 95.8669,32.0281 c 2.9599,1.2099 5.0045,4.4759 4.5246,7.5558 l -5.4765,32.9372 c -0.4907,3.084 -3.4308,5.6157 -6.5509,5.6347 0,0 -100.9505,0.1601 -100.9505,0.1601 l -0.1349,36.8601 c 0,3.1172 -2.5203,5.4479 -5.6393,5.4646 l -73.7087,0.0646 c -3.115,0.0159 -5.6973,-2.5234 -5.6971,-5.6412 l 0.1251,-36.832 -521.6072,-0.047 c -3.1178,0.0178 -5.6619,0.0408 -5.6619,0.0408 0,0 -0.082,36.8699 -0.082,36.8699 0,3.1184 -2.5228,5.6838 -5.6418,5.698 l -73.7101,-0.1715 c -3.1162,0.0167 -5.6982,-2.5203 -5.6982,-5.6384 l 0.099,-36.8484 -143.837,0.0788 c -1.7839,0.0116 -3.2508,-1.0423 -4.091,-2.3205 -0.5862,-0.9533 -0.8643,-2.1651 -0.6573,-3.4829 l 3.9452,-24.2552 c 26.5082,-92.4245 42.0968,-188.0878 46.681,-286.9994 l 3.9067,-24.0222 c 0.2245,-1.4196 0.9504,-2.5498 1.9584,-3.2601 1.1676,-0.8297 2.7037,-0.9145 4.2968,-0.3943 l 136.4218,45.5805 11.7244,-34.9957 c 0.9692,-2.9602 4.1879,-4.6003 7.149,-3.6201 z"
         style="fill:none;stroke:#00a650;stroke-opacity:1;stroke-width:0.9998;stroke-linecap:butt;stroke-linejoin:miter;stroke-miterlimit:22.92558563;stroke-dasharray:none"
         id="path112" /></g><g
       id="g114"
       transform="matrix(-1,4.7e-4,-4.7e-4,-1,0,0)"><path
         d="m -681.7873,-714.3333 c -1.9324,-0.3098 -3.7462,1.0199 -4.0493,2.9501 -0.3027,1.9301 1.018,3.7496 2.9506,4.0501 1.9347,0.2999 3.7463,-1.0202 4.0493,-2.95 0.305,-1.9298 -1.0182,-3.7503 -2.9506,-4.0502 z"
         style="fill:none;stroke:#ed1c24;stroke-opacity:1;stroke-width:0.9998;stroke-linecap:butt;stroke-linejoin:miter;stroke-miterlimit:22.92558563;stroke-dasharray:none"
         id="path116" /></g><g
       id="g118"
       transform="matrix(-1,4.7e-4,-4.7e-4,-1,0,0)"><path
         d="m -923.5539,-795.1731 c -1.9338,-0.2999 -3.7457,0.9198 -4.0867,2.7797 -0.3819,1.8805 0.9377,3.9203 2.8709,4.2202 1.9338,0.3098 3.7468,-1.01 4.0501,-2.95 0.4199,-1.9304 -0.9011,-3.7401 -2.8343,-4.0499 z"
         style="fill:none;stroke:#ed1c24;stroke-opacity:1;stroke-width:0.9998;stroke-linecap:butt;stroke-linejoin:miter;stroke-miterlimit:22.92558563;stroke-dasharray:none"
         id="path120" /></g><path
       d="m 1092.3004,875.5863 -6.2929,18.8649 -13.4232,-4.4776 6.2929,-18.8649 13.4232,4.4776 z"
       style="fill:none;stroke:#ed1c24;stroke-opacity:1;stroke-width:0.5669;stroke-linecap:butt;stroke-linejoin:miter;stroke-miterlimit:22.92558563;stroke-dasharray:none"
       id="path122" /><path
       d="m 1141.6578,570.8134 -0.017,-19.8867 -14.1503,0.0122 0.017,19.8867 14.1503,-0.0122 z"
       style="fill:none;stroke:#ed1c24;stroke-opacity:1;stroke-width:0.5669;stroke-linecap:butt;stroke-linejoin:miter;stroke-miterlimit:22.92558563;stroke-dasharray:none"
       id="path124" /><path
       d="m 511.4684,681.8369 -6.2923,18.8634 -13.3591,-4.456 6.2923,-18.8638 13.3591,4.4564 z"
       style="fill:none;stroke:#ed1c24;stroke-opacity:1;stroke-width:0.5669;stroke-linecap:butt;stroke-linejoin:miter;stroke-miterlimit:22.92558563;stroke-dasharray:none"
       id="path126" /><path
       d="m 529.3633,571.339 -0.017,-19.8853 -14.0828,0.0119 0.017,19.8853 14.0828,-0.0119 z"
       style="fill:none;stroke:#ed1c24;stroke-opacity:1;stroke-width:0.5669;stroke-linecap:butt;stroke-linejoin:miter;stroke-miterlimit:22.92558563;stroke-dasharray:none"
       id="path128" /><path
       d="m 1226.1793,653.2903 -495.9924,0.218 c -4.1593,0.3923 -6.5668,3.0472 -7.0373,6.0074 -0.4893,2.9572 0.9555,6.2371 4.7775,7.9237 l 470.4933,156.9858 c 3.496,1.1671 8.301,-0.8212 9.108,-5.8084 l 12.7375,-78.467 12.7185,-78.4698 c 0.8104,-4.9867 -3.1195,-8.3917 -6.8051,-8.3897 z"
       style="fill:none;stroke:#ed1c24;stroke-opacity:1;stroke-width:0.216;stroke-linecap:butt;stroke-linejoin:miter;stroke-miterlimit:22.92558563;stroke-dasharray:none"
       id="path130" /><path
       d="m 494.0575,622.3561 c -2.5061,15.4508 7.9914,30.0132 23.4422,32.5193 15.4508,2.5061 30.0132,-7.9914 32.5194,-23.4422 2.5061,-15.4505 -7.9915,-30.0132 -23.4423,-32.5193 -15.4505,-2.5062 -30.0129,7.9914 -32.5193,23.4422 z"
       style="fill:none;stroke:#ed1c24;stroke-opacity:1;stroke-width:0.216;stroke-linecap:butt;stroke-linejoin:miter;stroke-miterlimit:22.92558563;stroke-dasharray:none"
       id="path132" /><path
       d="m 579.8979,702.2415 69.9018,23.2875 c 2.9636,1.1387 4.5958,4.358 3.6284,7.3182 0,0 -11.683,34.9387 -11.683,34.9387 0,0 500.1247,166.828 500.1247,166.828 l 11.5932,-34.7548 c 1.2019,-2.9605 4.3594,-4.8742 7.3227,-3.9053 l 69.8241,23.3175 c 2.9636,0.9686 4.4538,4.3923 3.4844,7.3627 l -11.63,34.8639 95.8819,31.9836 c 2.9605,1.2084 5.0065,4.4736 4.528,7.5538 l -5.4612,32.9394 c -0.489,3.0844 -3.4279,5.6174 -6.548,5.6378 0,0 -100.9505,0.2072 -100.9505,0.2072 l -0.1177,36.8601 c 0,3.1172 -2.5177,5.449 -5.6367,5.4674 l -73.7087,0.099 c -3.115,0.017 -5.6985,-2.5209 -5.6999,-5.6387 l 0.108,-36.832 -521.6071,0.1959 c -3.1178,0.019 -5.6619,0.043 -5.6619,0.043 0,0 -0.065,36.8699 -0.065,36.8699 0.001,3.1184 -2.5202,5.6852 -5.6392,5.7008 l -73.7101,-0.1372 c -3.1162,0.018 -5.6994,-2.5177 -5.7008,-5.6359 l 0.0819,-36.8484 -143.837,0.1457 c -1.7838,0.013 -3.2513,-1.0406 -4.0921,-2.3184 -0.5865,-0.953 -0.8651,-2.1646 -0.6587,-3.4827 l 3.9339,-24.2569 c 26.4651,-92.4369 42.0091,-188.1074 46.5471,-287.0212 l 3.8957,-24.0239 c 0.2236,-1.4199 0.949,-2.5503 1.9567,-3.261 1.1673,-0.8302 2.7034,-0.9158 4.2968,-0.3965 l 136.4431,45.517 11.7079,-35.0011 c 0.9678,-2.9607 4.1857,-4.6023 7.1473,-3.6235 z"
       style="fill:none;stroke:#00a650;stroke-opacity:1;stroke-width:0.9998;stroke-linecap:butt;stroke-linejoin:miter;stroke-miterlimit:22.92558563;stroke-dasharray:none"
       id="path134" /><path
       d="m 1007.5589,905.6424 c -1.9323,-0.309 -3.7457,1.0216 -4.0478,2.9517 -0.3019,1.9304 1.0196,3.7494 2.9525,4.0487 1.9347,0.2991 3.7457,-1.0219 4.0479,-2.9517 0.3042,-1.9301 -1.0199,-3.75 -2.9526,-4.0487 z"
       style="fill:none;stroke:#ed1c24;stroke-opacity:1;stroke-width:0.9998;stroke-linecap:butt;stroke-linejoin:miter;stroke-miterlimit:22.92558563;stroke-dasharray:none"
       id="path136" /><path
       d="m 765.7549,824.9151 c -1.9341,-0.2991 -3.7455,0.9215 -4.0856,2.7816 -0.381,1.8805 0.9397,3.9197 2.8729,4.2188 1.9341,0.309 3.7466,-1.0117 4.0487,-2.952 0.419,-1.9304 -0.9028,-3.7395 -2.836,-4.0484 z"
       style="fill:none;stroke:#ed1c24;stroke-opacity:1;stroke-width:0.9998;stroke-linecap:butt;stroke-linejoin:miter;stroke-miterlimit:22.92558563;stroke-dasharray:none"
       id="path138" /><path
       d="m 597.3786,744.0715 6.2929,-18.8648 13.4232,4.4776 -6.2929,18.8648 -13.4232,-4.4776 z"
       style="fill:none;stroke:#ed1c24;stroke-opacity:1;stroke-width:0.5669;stroke-linecap:butt;stroke-linejoin:miter;stroke-miterlimit:22.92558563;stroke-dasharray:none"
       id="path140" /><path
       d="m 548.0212,1048.8444 0.0173,19.8867 14.1503,-0.012 -0.0173,-19.8868 -14.1503,0.012 z"
       style="fill:none;stroke:#ed1c24;stroke-opacity:1;stroke-width:0.5669;stroke-linecap:butt;stroke-linejoin:miter;stroke-miterlimit:22.92558563;stroke-dasharray:none"
       id="path142" /><path
       d="m 1178.2106,937.821 6.2923,-18.8635 13.3591,4.4561 -6.2923,18.8637 -13.3591,-4.4563 z"
       style="fill:none;stroke:#ed1c24;stroke-opacity:1;stroke-width:0.5669;stroke-linecap:butt;stroke-linejoin:miter;stroke-miterlimit:22.92558563;stroke-dasharray:none"
       id="path144" /><path
       d="m 1160.3157,1048.3189 0.017,19.8853 14.0828,-0.012 -0.017,-19.8853 -14.0828,0.012 z"
       style="fill:none;stroke:#ed1c24;stroke-opacity:1;stroke-width:0.5669;stroke-linecap:butt;stroke-linejoin:miter;stroke-miterlimit:22.92558563;stroke-dasharray:none"
       id="path146" /><path
       d="m 463.4997,966.3676 495.9924,-0.218 c 4.1593,-0.3923 6.5668,-3.0473 7.0373,-6.0075 0.4893,-2.9571 -0.9555,-6.2371 -4.7775,-7.9237 L 491.2586,795.2326 c -3.496,-1.167 -8.301,0.8212 -9.108,5.8085 l -12.7375,78.467 -12.7185,78.4698 c -0.8104,4.9867 3.1195,8.3916 6.8051,8.3897 z"
       style="fill:none;stroke:#ed1c24;stroke-opacity:1;stroke-width:0.216;stroke-linecap:butt;stroke-linejoin:miter;stroke-miterlimit:22.92558563;stroke-dasharray:none"
       id="path148" /><path
       d="m 1195.6215,997.3018 c 2.5061,-15.4508 -7.9914,-30.0133 -23.4422,-32.5194 -15.4508,-2.5061 -30.0133,7.9915 -32.5194,23.4423 -2.5061,15.4505 7.9915,30.0132 23.4423,32.5193 15.4505,2.5061 30.0129,-7.9914 32.5193,-23.4422 z"
       style="fill:none;stroke:#ed1c24;stroke-opacity:1;stroke-width:0.216;stroke-linecap:butt;stroke-linejoin:miter;stroke-miterlimit:22.92558563;stroke-dasharray:none"
       id="path150" /></g></svg>
